<svg width="589" height="121" viewBox="0 0 589 121" fill="none" xmlns="http://www.w3.org/2000/svg">
<path d="M-0.000109196 92.928V30.72H19.5839V92.928H-0.000109196ZM39.8079 92.928V56.576C39.8079 53.4186 38.8266 50.9866 36.8639 49.28C34.9866 47.488 32.6399 46.592 29.8239 46.592C27.8612 46.592 26.1119 47.0186 24.5759 47.872C23.0399 48.64 21.8026 49.7493 20.8639 51.2C20.0106 52.6506 19.5839 54.4426 19.5839 56.576L12.0319 53.248C12.0319 48.2986 13.0986 44.0746 15.2319 40.576C17.3652 36.992 20.2666 34.2613 23.9359 32.384C27.6052 30.4213 31.7439 29.44 36.3519 29.44C40.7039 29.44 44.5866 30.4213 47.9999 32.384C51.4986 34.3466 54.2719 37.0773 56.3199 40.576C58.3679 44.0746 59.3919 48.256 59.3919 53.12V92.928H39.8079ZM79.6159 92.928V56.576C79.6159 53.4186 78.6346 50.9866 76.6719 49.28C74.7946 47.488 72.4479 46.592 69.6319 46.592C67.6692 46.592 65.9199 47.0186 64.3839 47.872C62.8479 48.64 61.6106 49.7493 60.6719 51.2C59.8186 52.6506 59.3919 54.4426 59.3919 56.576L48.1279 55.04C48.2986 49.7493 49.5359 45.2266 51.8399 41.472C54.2292 37.632 57.3439 34.688 61.1839 32.64C65.1092 30.5066 69.5039 29.44 74.3679 29.44C79.1466 29.44 83.3706 30.464 87.0399 32.512C90.7946 34.4746 93.7386 37.3333 95.8719 41.088C98.0906 44.7573 99.1999 49.1946 99.1999 54.4V92.928H79.6159ZM131.334 94.208C125.617 94.208 120.497 92.8 115.974 89.984C111.537 87.168 107.995 83.328 105.35 78.464C102.79 73.6 101.51 68.0533 101.51 61.824C101.51 55.5946 102.79 50.048 105.35 45.184C107.995 40.32 111.537 36.48 115.974 33.664C120.497 30.848 125.617 29.44 131.334 29.44C135.515 29.44 139.27 30.2506 142.598 31.872C146.011 33.4933 148.785 35.7546 150.918 38.656C153.051 41.472 154.246 44.7146 154.502 48.384V75.264C154.246 78.9333 153.051 82.2186 150.918 85.12C148.87 87.936 146.139 90.1546 142.726 91.776C139.313 93.3973 135.515 94.208 131.334 94.208ZM135.302 76.544C139.483 76.544 142.854 75.1786 145.414 72.448C147.974 69.632 149.254 66.0906 149.254 61.824C149.254 58.9226 148.657 56.3626 147.462 54.144C146.353 51.9253 144.731 50.2186 142.598 49.024C140.55 47.744 138.161 47.104 135.43 47.104C132.699 47.104 130.267 47.744 128.134 49.024C126.086 50.2186 124.422 51.9253 123.142 54.144C121.947 56.3626 121.35 58.9226 121.35 61.824C121.35 64.64 121.947 67.1573 123.142 69.376C124.337 71.5946 126.001 73.344 128.134 74.624C130.267 75.904 132.657 76.544 135.302 76.544ZM148.486 92.928V76.16L151.43 61.056L148.486 45.952V30.72H167.686V92.928H148.486ZM171.491 120.832C166.968 120.832 163.128 120.064 159.971 118.528C156.814 117.077 154.04 114.987 151.651 112.256L163.811 100.096C164.75 101.205 165.731 101.973 166.755 102.4C167.694 102.912 168.803 103.168 170.083 103.168C171.96 103.168 173.496 102.613 174.691 101.504C175.971 100.395 176.611 98.688 176.611 96.384V30.72H196.195V96.128C196.195 101.163 195.128 105.515 192.995 109.184C190.862 112.853 187.918 115.712 184.163 117.76C180.494 119.808 176.27 120.832 171.491 120.832ZM186.595 22.144C183.523 22.144 180.963 21.12 178.915 19.072C176.952 16.9386 175.971 14.3786 175.971 11.392C175.971 8.31997 176.952 5.75997 178.915 3.71198C180.963 1.66398 183.523 0.639977 186.595 0.639977C189.667 0.639977 192.184 1.66398 194.147 3.71198C196.11 5.75997 197.091 8.31997 197.091 11.392C197.091 14.3786 196.11 16.9386 194.147 19.072C192.184 21.12 189.667 22.144 186.595 22.144ZM233.627 94.336C227.227 94.336 221.424 92.928 216.219 90.112C211.099 87.2106 207.046 83.2853 204.059 78.336C201.072 73.3866 199.579 67.84 199.579 61.696C199.579 55.552 201.072 50.048 204.059 45.184C207.046 40.32 211.099 36.48 216.219 33.664C221.339 30.7626 227.142 29.312 233.627 29.312C240.112 29.312 245.915 30.72 251.035 33.536C256.155 36.352 260.208 40.2346 263.195 45.184C266.182 50.048 267.675 55.552 267.675 61.696C267.675 67.84 266.182 73.3866 263.195 78.336C260.208 83.2853 256.155 87.2106 251.035 90.112C245.915 92.928 240.112 94.336 233.627 94.336ZM233.627 76.544C236.443 76.544 238.918 75.9466 241.051 74.752C243.184 73.472 244.806 71.7226 245.915 69.504C247.11 67.2 247.707 64.5973 247.707 61.696C247.707 58.7946 247.11 56.2773 245.915 54.144C244.72 51.9253 243.056 50.2186 240.923 49.024C238.875 47.744 236.443 47.104 233.627 47.104C230.896 47.104 228.464 47.744 226.331 49.024C224.198 50.2186 222.534 51.9253 221.339 54.144C220.144 56.3626 219.547 58.9226 219.547 61.824C219.547 64.64 220.144 67.2 221.339 69.504C222.534 71.7226 224.198 73.472 226.331 74.752C228.464 75.9466 230.896 76.544 233.627 76.544ZM271.025 92.928V30.72H290.609V92.928H271.025ZM290.609 58.752L282.417 52.352C284.038 45.0986 286.769 39.4666 290.609 35.456C294.449 31.4453 299.782 29.44 306.609 29.44C309.596 29.44 312.198 29.9093 314.417 30.848C316.721 31.7013 318.726 33.0666 320.433 34.944L308.785 49.664C307.932 48.7253 306.865 48 305.585 47.488C304.305 46.976 302.854 46.72 301.233 46.72C297.99 46.72 295.388 47.744 293.425 49.792C291.548 51.7546 290.609 54.7413 290.609 58.752ZM375.315 94.208C371.134 94.208 367.294 93.3546 363.795 91.648C360.296 89.856 357.438 87.5093 355.219 84.608C353 81.6213 351.72 78.2933 351.379 74.624V48.384C351.72 44.7146 353 41.472 355.219 38.656C357.438 35.7546 360.296 33.4933 363.795 31.872C367.294 30.2506 371.134 29.44 375.315 29.44C381.203 29.44 386.408 30.848 390.931 33.664C395.539 36.48 399.123 40.32 401.683 45.184C404.328 50.048 405.651 55.5946 405.651 61.824C405.651 68.0533 404.328 73.6 401.683 78.464C399.123 83.328 395.539 87.168 390.931 89.984C386.408 92.8 381.203 94.208 375.315 94.208ZM339.475 92.928V-2.28882e-05H359.059V45.952L355.859 61.056L358.803 76.16V92.928H339.475ZM371.859 76.544C374.59 76.544 376.979 75.904 379.027 74.624C381.16 73.344 382.824 71.5946 384.019 69.376C385.214 67.1573 385.811 64.64 385.811 61.824C385.811 58.9226 385.214 56.3626 384.019 54.144C382.824 51.9253 381.16 50.2186 379.027 49.024C376.979 47.744 374.59 47.104 371.859 47.104C369.128 47.104 366.696 47.744 364.563 49.024C362.43 50.2186 360.766 51.9253 359.571 54.144C358.462 56.3626 357.907 58.9226 357.907 61.824C357.907 64.7253 358.504 67.2853 359.699 69.504C360.894 71.7226 362.515 73.472 364.563 74.752C366.696 75.9466 369.128 76.544 371.859 76.544ZM436.848 94.336C431.131 94.336 426.053 93.184 421.616 90.88C417.264 88.4906 413.851 85.248 411.376 81.152C408.901 76.9706 407.664 72.192 407.664 66.816V30.72H427.248V66.56C427.248 68.6933 427.589 70.528 428.272 72.064C429.04 73.6 430.149 74.7946 431.6 75.648C433.051 76.5013 434.8 76.928 436.848 76.928C439.749 76.928 442.053 76.032 443.76 74.24C445.467 72.3626 446.32 69.8026 446.32 66.56V30.72H465.904V66.688C465.904 72.1493 464.667 76.9706 462.192 81.152C459.717 85.248 456.304 88.4906 451.952 90.88C447.6 93.184 442.565 94.336 436.848 94.336ZM471.8 92.928V30.72H491.384V92.928H471.8ZM481.656 22.144C478.584 22.144 476.024 21.12 473.976 19.072C472.013 16.9386 471.032 14.3786 471.032 11.392C471.032 8.31997 472.013 5.75997 473.976 3.71198C476.024 1.66398 478.584 0.639977 481.656 0.639977C484.728 0.639977 487.245 1.66398 489.208 3.71198C491.171 5.75997 492.152 8.31997 492.152 11.392C492.152 14.3786 491.171 16.9386 489.208 19.072C487.245 21.12 484.728 22.144 481.656 22.144ZM498.775 92.928V-2.28882e-05H518.359V92.928H498.775ZM552.246 94.208C546.358 94.208 541.11 92.8 536.502 89.984C531.979 87.168 528.395 83.328 525.75 78.464C523.19 73.6 521.91 68.0533 521.91 61.824C521.91 55.5946 523.19 50.048 525.75 45.184C528.395 40.32 531.979 36.48 536.502 33.664C541.11 30.848 546.358 29.44 552.246 29.44C556.513 29.44 560.353 30.2506 563.766 31.872C567.265 33.4933 570.123 35.7546 572.342 38.656C574.646 41.472 575.926 44.7146 576.182 48.384V74.624C575.926 78.2933 574.689 81.6213 572.47 84.608C570.251 87.5093 567.393 89.856 563.894 91.648C560.395 93.3546 556.513 94.208 552.246 94.208ZM555.702 76.544C558.518 76.544 560.95 75.9466 562.998 74.752C565.046 73.472 566.667 71.7226 567.862 69.504C569.057 67.2853 569.654 64.7253 569.654 61.824C569.654 58.9226 569.057 56.4053 567.862 54.272C566.753 52.0533 565.131 50.304 562.998 49.024C560.95 47.744 558.561 47.104 555.83 47.104C553.099 47.104 550.667 47.744 548.534 49.024C546.486 50.304 544.822 52.0533 543.542 54.272C542.347 56.4906 541.75 59.008 541.75 61.824C541.75 64.64 542.347 67.1573 543.542 69.376C544.737 71.5946 546.401 73.344 548.534 74.624C550.667 75.904 553.057 76.544 555.702 76.544ZM588.086 92.928H568.886V76.16L571.83 61.056L568.502 45.952V-2.28882e-05H588.086V92.928Z" fill="#110E08"/>
</svg>
