<svg width="622" height="119" viewBox="0 0 622 119" fill="none" xmlns="http://www.w3.org/2000/svg">
<path d="M1.90735e-06 91.392V30.592H11.52V91.392H1.90735e-06ZM41.088 91.392V54.656C41.088 50.1333 39.68 46.592 36.864 44.032C34.1333 41.3866 30.6773 40.064 26.496 40.064C23.68 40.064 21.1627 40.6613 18.944 41.856C16.7253 43.0506 14.9333 44.7146 13.568 46.848C12.2027 48.9813 11.52 51.5413 11.52 54.528L6.784 52.224C6.784 47.616 7.76534 43.6053 9.728 40.192C11.776 36.7786 14.5493 34.1333 18.048 32.256C21.5467 30.2933 25.472 29.312 29.824 29.312C34.0907 29.312 37.9307 30.2506 41.344 32.128C44.8427 34.0053 47.5733 36.6506 49.536 40.064C51.584 43.4773 52.608 47.5306 52.608 52.224V91.392H41.088ZM82.176 91.392V54.656C82.176 50.1333 80.768 46.592 77.952 44.032C75.2213 41.3866 71.808 40.064 67.712 40.064C64.896 40.064 62.336 40.6613 60.032 41.856C57.8133 43.0506 56.0213 44.7146 54.656 46.848C53.2907 48.9813 52.608 51.5413 52.608 54.528L46.08 52.224C46.336 47.5306 47.5733 43.52 49.792 40.192C52.096 36.7786 55.04 34.1333 58.624 32.256C62.208 30.2933 66.1333 29.312 70.4 29.312C74.8373 29.312 78.8053 30.2506 82.304 32.128C85.8027 34.0053 88.576 36.6506 90.624 40.064C92.7573 43.4773 93.824 47.5733 93.824 52.352V91.392H82.176ZM135.356 92.672C129.809 92.672 124.775 91.3066 120.252 88.576C115.729 85.76 112.145 81.9626 109.5 77.184C106.94 72.4053 105.66 67.0293 105.66 61.056C105.66 55.0826 106.94 49.7066 109.5 44.928C112.145 40.1493 115.687 36.352 120.124 33.536C124.647 30.72 129.724 29.312 135.356 29.312C139.964 29.312 144.06 30.2933 147.644 32.256C151.313 34.1333 154.257 36.7786 156.476 40.192C158.695 43.52 159.932 47.4026 160.188 51.84V70.144C159.932 74.496 158.695 78.3786 156.476 81.792C154.343 85.2053 151.441 87.8933 147.772 89.856C144.188 91.7333 140.049 92.672 135.356 92.672ZM137.276 81.792C142.993 81.792 147.601 79.872 151.1 76.032C154.599 72.1066 156.348 67.1146 156.348 61.056C156.348 56.8746 155.537 53.248 153.916 50.176C152.38 47.0186 150.161 44.5866 147.26 42.88C144.359 41.088 140.988 40.192 137.148 40.192C133.308 40.192 129.895 41.088 126.908 42.88C124.007 44.672 121.703 47.1466 119.996 50.304C118.375 53.376 117.564 56.9173 117.564 60.928C117.564 65.024 118.375 68.6506 119.996 71.808C121.703 74.88 124.049 77.312 127.036 79.104C130.023 80.896 133.436 81.792 137.276 81.792ZM155.58 91.392V75.008L157.756 60.16L155.58 45.44V30.592H167.228V91.392H155.58ZM176.32 118.144C172.395 118.144 169.109 117.504 166.464 116.224C163.733 114.944 161.301 113.109 159.168 110.72L166.592 103.168C167.787 104.619 169.109 105.685 170.56 106.368C171.925 107.051 173.589 107.392 175.552 107.392C178.112 107.392 180.331 106.581 182.208 104.96C184.085 103.424 185.024 101.077 185.024 97.92V30.592H196.544V97.792C196.544 102.229 195.605 105.941 193.728 108.928C191.851 111.915 189.376 114.176 186.304 115.712C183.232 117.333 179.904 118.144 176.32 118.144ZM190.912 18.432C188.864 18.432 187.157 17.7493 185.792 16.384C184.427 14.9333 183.744 13.1413 183.744 11.008C183.744 8.95997 184.427 7.2533 185.792 5.88796C187.157 4.43729 188.864 3.71196 190.912 3.71196C193.045 3.71196 194.795 4.43729 196.16 5.88796C197.525 7.2533 198.208 8.95997 198.208 11.008C198.208 13.1413 197.525 14.9333 196.16 16.384C194.795 17.7493 193.045 18.432 190.912 18.432ZM241.276 92.672C235.303 92.672 229.927 91.264 225.148 88.448C220.369 85.632 216.572 81.8346 213.756 77.056C210.94 72.192 209.532 66.7733 209.532 60.8C209.532 54.912 210.94 49.6213 213.756 44.928C216.572 40.1493 220.369 36.352 225.148 33.536C229.927 30.72 235.303 29.312 241.276 29.312C247.164 29.312 252.497 30.72 257.276 33.536C262.14 36.2666 265.98 40.0213 268.796 44.8C271.612 49.5786 273.02 54.912 273.02 60.8C273.02 66.7733 271.612 72.192 268.796 77.056C265.98 81.8346 262.14 85.632 257.276 88.448C252.497 91.264 247.164 92.672 241.276 92.672ZM241.276 81.536C245.116 81.536 248.529 80.64 251.516 78.848C254.503 77.056 256.849 74.624 258.556 71.552C260.263 68.3946 261.116 64.8106 261.116 60.8C261.116 56.8746 260.22 53.376 258.428 50.304C256.721 47.232 254.375 44.8426 251.388 43.136C248.487 41.344 245.116 40.448 241.276 40.448C237.436 40.448 234.023 41.344 231.036 43.136C228.049 44.8426 225.703 47.232 223.996 50.304C222.289 53.376 221.436 56.8746 221.436 60.8C221.436 64.8106 222.289 68.3946 223.996 71.552C225.703 74.624 228.049 77.056 231.036 78.848C234.023 80.64 237.436 81.536 241.276 81.536ZM286 91.392V30.592H297.52V91.392H286ZM297.52 56.704L293.168 54.784C293.168 47.0186 294.96 40.832 298.544 36.224C302.128 31.616 307.291 29.312 314.032 29.312C317.104 29.312 319.877 29.8666 322.352 30.976C324.827 32 327.131 33.7493 329.264 36.224L321.712 44.032C320.432 42.6666 319.024 41.6853 317.488 41.088C315.952 40.4906 314.16 40.192 312.112 40.192C307.845 40.192 304.347 41.5573 301.616 44.288C298.885 47.0186 297.52 51.1573 297.52 56.704ZM398.25 92.672C393.642 92.672 389.461 91.7333 385.706 89.856C382.037 87.8933 379.093 85.2053 376.874 81.792C374.655 78.3786 373.418 74.496 373.162 70.144V51.84C373.418 47.4026 374.655 43.52 376.874 40.192C379.178 36.7786 382.165 34.1333 385.834 32.256C389.589 30.2933 393.727 29.312 398.25 29.312C403.797 29.312 408.789 30.72 413.226 33.536C417.749 36.352 421.29 40.1493 423.85 44.928C426.41 49.7066 427.69 55.0826 427.69 61.056C427.69 67.0293 426.41 72.4053 423.85 77.184C421.29 81.9626 417.749 85.76 413.226 88.576C408.789 91.3066 403.797 92.672 398.25 92.672ZM366.25 91.392V-3.8147e-05H377.77V45.44L375.594 60.16L377.77 75.008V91.392H366.25ZM396.33 81.792C400.17 81.792 403.541 80.896 406.442 79.104C409.343 77.312 411.647 74.88 413.354 71.808C415.061 68.6506 415.914 65.024 415.914 60.928C415.914 56.9173 415.061 53.3333 413.354 50.176C411.647 47.0186 409.343 44.5866 406.442 42.88C403.541 41.088 400.213 40.192 396.458 40.192C392.618 40.192 389.247 41.088 386.346 42.88C383.445 44.5866 381.183 47.0186 379.562 50.176C377.941 53.3333 377.13 56.96 377.13 61.056C377.13 65.0666 377.898 68.6506 379.434 71.808C381.055 74.88 383.317 77.312 386.218 79.104C389.205 80.896 392.575 81.792 396.33 81.792ZM465.198 92.672C460.249 92.672 455.769 91.5626 451.758 89.344C447.833 87.04 444.761 83.8826 442.542 79.872C440.323 75.8613 439.214 71.2106 439.214 65.92V30.592H450.734V65.408C450.734 68.736 451.289 71.6373 452.398 74.112C453.593 76.5013 455.299 78.336 457.518 79.616C459.737 80.896 462.339 81.536 465.326 81.536C469.849 81.536 473.39 80.128 475.95 77.312C478.51 74.4106 479.79 70.4426 479.79 65.408V30.592H491.31V65.92C491.31 71.2106 490.201 75.8613 487.982 79.872C485.763 83.8826 482.691 87.04 478.766 89.344C474.926 91.5626 470.403 92.672 465.198 92.672ZM506.878 91.392V30.592H518.398V91.392H506.878ZM512.638 18.432C510.505 18.432 508.755 17.7493 507.39 16.384C506.025 14.9333 505.342 13.1413 505.342 11.008C505.342 8.95997 506.025 7.2533 507.39 5.88796C508.755 4.43729 510.505 3.71196 512.638 3.71196C514.771 3.71196 516.521 4.43729 517.886 5.88796C519.251 7.2533 519.934 8.95997 519.934 11.008C519.934 13.1413 519.251 14.9333 517.886 16.384C516.521 17.7493 514.771 18.432 512.638 18.432ZM535.375 91.392V-3.8147e-05H546.895V91.392H535.375ZM589.478 92.672C583.846 92.672 578.811 91.3066 574.374 88.576C569.937 85.76 566.395 81.9626 563.75 77.184C561.19 72.4053 559.91 67.0293 559.91 61.056C559.91 55.0826 561.19 49.7066 563.75 44.928C566.395 40.1493 569.937 36.352 574.374 33.536C578.811 30.72 583.846 29.312 589.478 29.312C594.001 29.312 598.097 30.2933 601.766 32.256C605.435 34.1333 608.379 36.7786 610.598 40.192C612.902 43.52 614.182 47.4026 614.438 51.84V70.144C614.182 74.496 612.945 78.3786 610.726 81.792C608.507 85.2053 605.563 87.8933 601.894 89.856C598.225 91.7333 594.086 92.672 589.478 92.672ZM591.398 81.792C595.238 81.792 598.566 80.896 601.382 79.104C604.283 77.312 606.545 74.88 608.166 71.808C609.787 68.6506 610.598 65.0666 610.598 61.056C610.598 56.8746 609.745 53.248 608.038 50.176C606.417 47.104 604.155 44.672 601.254 42.88C598.438 41.088 595.11 40.192 591.27 40.192C587.43 40.192 584.059 41.088 581.158 42.88C578.257 44.672 575.953 47.1466 574.246 50.304C572.625 53.376 571.814 56.9173 571.814 60.928C571.814 65.024 572.625 68.6506 574.246 71.808C575.953 74.88 578.257 77.312 581.158 79.104C584.145 80.896 587.558 81.792 591.398 81.792ZM621.478 91.392H609.83V75.008L612.006 60.16L609.83 45.44V-3.8147e-05H621.478V91.392Z" fill="#110E08"/>
</svg>
